<?xml version="1.0" standalone="no"?>
<!DOCTYPE svg PUBLIC "-//W3C//DTD SVG 20010904//EN"
 "http://www.w3.org/TR/2001/REC-SVG-20010904/DTD/svg10.dtd">
<svg version="1.0" xmlns="http://www.w3.org/2000/svg"
 width="200.000000pt" height="200.000000pt" viewBox="0 0 200.000000 200.000000"
 preserveAspectRatio="xMidYMid meet">

<g transform="translate(0.000000,200.000000) scale(0.100000,-0.100000)"
fill="#000000" stroke="none">
<path d="M960 1813 c-14 -2 -34 -8 -45 -13 -11 -5 -49 -19 -85 -31 -68 -23
-90 -42 -137 -119 -25 -41 -27 -55 -31 -170 -2 -83 1 -148 10 -192 14 -65 14
-67 -6 -70 -37 -5 -42 -47 -16 -142 12 -47 26 -83 30 -81 4 3 7 -3 6 -13 0 -9
9 -21 22 -27 12 -5 22 -15 22 -22 0 -6 13 -45 30 -85 16 -41 32 -93 36 -116 4
-23 11 -42 16 -42 6 0 8 -9 5 -21 -4 -16 -3 -18 9 -8 17 14 19 -2 3 -18 -9 -9
-3 -29 22 -80 18 -37 37 -71 42 -74 5 -4 6 -12 3 -18 -4 -6 0 -11 8 -11 9 0
16 -7 16 -15 0 -8 6 -15 14 -15 26 0 29 -21 6 -45 -13 -14 -27 -22 -31 -19 -5
3 -6 -1 -4 -9 3 -7 -1 -29 -10 -49 -8 -20 -12 -44 -8 -54 5 -13 2 -15 -15 -9
-12 3 -22 2 -22 -3 0 -5 9 -12 20 -15 11 -3 28 -19 37 -36 10 -17 22 -31 26
-31 5 0 5 5 2 10 -3 6 1 10 10 10 8 0 20 -11 25 -25 5 -14 16 -25 23 -25 8 0
23 -11 33 -25 10 -14 22 -25 25 -25 4 0 5 36 3 80 -3 78 -3 81 21 90 23 9 35
22 18 19 -32 -5 -62 3 -66 19 -3 12 -5 11 -6 -6 -1 -14 -6 -22 -13 -19 -7 2
-12 9 -11 15 2 6 -4 9 -12 6 -25 -10 -17 15 17 48 31 30 31 31 11 39 -47 17
-29 26 60 32 50 3 93 4 94 3 0 0 3 -12 5 -26 1 -14 7 -28 12 -31 5 -4 5 -12 1
-19 -6 -10 -10 -9 -17 4 -5 9 -7 20 -4 25 3 5 -1 12 -10 15 -8 3 -12 11 -8 17
4 8 3 9 -4 5 -15 -9 -16 -43 -2 -51 16 -10 12 -33 -7 -38 -10 -3 -3 -5 15 -6
21 -1 32 -6 32 -16 0 -8 4 -15 10 -15 5 0 7 7 4 15 -5 11 1 15 24 15 17 0 34
-5 37 -10 4 -6 3 -10 -2 -9 -22 4 -32 -2 -27 -16 4 -8 15 -15 25 -15 12 0 16
-5 12 -15 -4 -13 -18 -15 -74 -11 -42 4 -69 2 -69 -4 0 -6 17 -11 38 -12 20 0
42 -2 47 -3 6 -2 18 -3 28 -4 19 -1 23 -26 5 -37 -7 -5 -8 -2 -3 7 6 11 5 12
-6 2 -7 -7 -21 -13 -30 -13 -9 0 -19 -9 -22 -21 -3 -12 -10 -18 -15 -15 -6 3
-18 3 -27 0 -22 -9 0 -23 29 -19 12 2 47 6 79 10 31 3 57 11 57 16 0 6 -9 7
-20 4 -22 -7 -27 9 -10 35 9 13 11 13 19 0 6 -8 13 -11 16 -8 10 10 -4 28 -21
28 -8 0 -14 5 -14 10 0 6 3 10 8 10 4 0 13 9 19 20 11 16 10 18 -2 14 -10 -4
-13 0 -10 15 2 12 0 19 -5 16 -4 -3 -13 9 -19 26 -6 17 -15 28 -21 24 -6 -3
-7 0 -4 9 4 10 1 16 -9 16 -9 0 -19 4 -22 10 -3 6 1 7 9 4 19 -7 21 7 4 24 -6
6 -9 14 -6 17 12 12 141 -178 130 -191 -4 -4 -1 -4 6 0 6 4 12 13 12 20 0 8 7
19 15 26 16 13 10 35 -6 24 -5 -3 -7 -9 -4 -14 3 -5 1 -11 -5 -15 -6 -3 -13 2
-17 12 -4 10 -9 20 -13 23 -3 3 -27 34 -54 69 -32 42 -44 67 -38 73 7 7 23 -7
47 -41 36 -50 70 -64 39 -16 -9 14 -21 22 -26 19 -6 -4 -8 -1 -6 7 3 8 -2 22
-10 32 -11 13 -12 21 -5 28 8 8 25 -10 62 -66 28 -42 51 -82 51 -88 0 -8 3 -8
12 1 8 8 8 15 0 24 -7 9 -8 19 -1 28 5 10 12 11 17 5 12 -17 31 -15 30 3 0 9
3 26 7 36 6 14 5 17 -3 12 -7 -4 -20 6 -32 26 -20 33 -21 55 -3 51 5 -1 10 8
10 20 2 21 1 21 -12 3 -14 -19 -15 -18 -36 8 -12 15 -23 25 -26 22 -4 -4 6
-24 58 -117 8 -13 18 -27 23 -30 5 -4 5 -12 1 -19 -6 -10 -11 -9 -22 5 -11 16
-13 17 -13 3 0 -9 -4 -19 -8 -22 -11 -7 -94 113 -87 125 4 5 -2 6 -12 2 -10
-4 10 19 43 50 34 31 68 71 77 89 14 29 14 36 -5 87 -11 31 -29 65 -39 76 -16
18 -16 24 -3 75 8 30 14 67 14 82 0 20 8 31 30 43 17 9 30 19 30 24 0 14 -28
33 -39 27 -5 -3 -7 2 -4 12 5 20 43 48 43 32 0 -5 -4 -10 -10 -10 -5 0 -10 -7
-10 -15 0 -8 6 -15 14 -15 23 0 37 157 17 189 -12 19 -41 23 -41 6 0 -8 -4
-16 -8 -19 -5 -3 -8 52 -8 122 l1 127 -37 65 c-20 36 -52 80 -72 98 -20 18
-36 36 -36 41 0 30 -137 113 -205 125 -16 2 -37 7 -45 9 -8 2 -26 2 -40 0z
m310 -318 c19 -28 30 -56 30 -79 0 -19 9 -50 19 -68 24 -40 48 -126 54 -191 4
-42 3 -45 -9 -30 -8 10 -13 14 -13 8 3 -15 -19 -65 -29 -65 -4 0 -7 -14 -6
-30 1 -17 -2 -33 -7 -36 -11 -6 -106 40 -134 65 -23 22 -59 41 -74 41 -22 0
-10 -28 14 -34 17 -4 25 -13 25 -27 0 -20 -4 -21 -37 -14 -50 10 -114 8 -127
-5 -28 -28 -37 12 -9 42 9 10 13 21 9 25 -3 4 -35 -21 -70 -56 l-64 -63 -26
17 c-14 10 -26 21 -26 25 0 4 -10 10 -21 13 -13 4 -20 11 -16 20 3 7 -4 19
-15 26 -18 11 -19 19 -12 104 3 51 10 97 15 103 4 5 11 47 15 92 5 64 10 82
22 82 8 0 12 3 9 7 -9 8 67 44 123 57 24 6 109 12 187 13 l143 1 30 -43z
m-574 -338 c-1 -27 -22 -33 -22 -6 0 10 4 15 8 13 4 -3 8 0 8 5 0 6 2 11 4 11
2 0 3 -10 2 -23z m21 -109 c-3 -8 -6 -5 -6 6 -1 11 2 17 5 13 3 -3 4 -12 1
-19z m-7 -39 c0 -6 -4 -7 -10 -4 -5 3 -10 11 -10 16 0 6 5 7 10 4 6 -3 10 -11
10 -16z m235 -30 c-7 -16 -76 -71 -83 -65 -12 12 14 49 46 65 40 21 45 21 37
0z m302 -30 c7 -6 13 -19 12 -28 0 -10 -2 -11 -6 -3 -2 6 -11 12 -18 12 -8 0
-21 9 -29 21 -8 12 -19 18 -24 15 -6 -3 -12 1 -16 9 -5 13 -1 13 31 0 20 -9
42 -20 50 -26z m-227 -99 c24 -8 24 -8 -7 -9 -17 -1 -35 4 -38 9 -7 11 9 11
45 0z m-65 -10 c3 -5 1 -10 -5 -10 -6 0 -8 -4 -5 -10 3 -5 2 -10 -3 -10 -12 0
-23 26 -15 34 9 9 21 7 28 -4z m242 -6 c-3 -3 -12 -4 -19 -1 -8 3 -5 6 6 6 11
1 17 -2 13 -5z m-189 -64 c7 0 12 -7 12 -15 0 -8 -2 -15 -4 -15 -2 0 -11 -3
-20 -6 -11 -4 -16 0 -16 12 0 15 -2 16 -9 5 -11 -17 -21 -1 -16 25 2 10 4 21
4 23 1 2 9 -3 19 -12 10 -10 24 -17 30 -17z m161 13 c-6 -7 -9 -13 -5 -13 3 0
-2 -9 -11 -19 -9 -11 -24 -18 -34 -16 -11 2 -19 0 -19 -6 0 -5 -7 -9 -15 -9
-26 0 -17 36 13 49 15 8 34 17 42 20 25 13 41 9 29 -6z m85 -329 c-16 -13 -34
-23 -41 -24 -6 0 -14 -8 -16 -17 -3 -13 -5 -14 -6 -3 -1 20 8 31 44 57 39 28
55 17 19 -13z m27 -31 c13 -16 12 -17 -3 -4 -10 7 -18 15 -18 17 0 8 8 3 21
-13z m-291 -73 c0 -26 -19 -35 -27 -14 -4 10 -2 19 5 22 7 2 9 9 6 14 -4 7 -2
8 4 4 7 -4 12 -16 12 -26z m16 -96 c27 -7 30 -16 10 -33 -8 -7 -12 -21 -8 -33
3 -15 1 -19 -9 -16 -8 3 -13 13 -13 22 1 9 -2 16 -7 16 -5 0 -9 7 -9 15 0 8
-4 15 -10 15 -5 0 -10 7 -10 16 0 11 5 14 16 10 9 -3 27 -9 40 -12z m-66 -39
c10 -12 10 -15 -4 -15 -9 0 -16 7 -16 15 0 8 2 15 4 15 2 0 9 -7 16 -15z m90
-76 c0 -6 -4 -7 -10 -4 -5 3 -10 11 -10 16 0 6 5 7 10 4 6 -3 10 -11 10 -16z
m205 1 c-3 -5 -15 -10 -26 -10 -10 0 -19 5 -19 10 0 6 12 10 26 10 14 0 23 -4
19 -10z"/>
<path d="M1086 1313 c-23 -12 -48 -14 -105 -10 -55 4 -93 1 -136 -11 l-60 -17
-7 -54 c-8 -56 3 -87 27 -77 7 2 18 -1 24 -7 6 -6 32 -11 58 -11 60 -1 95 23
114 79 18 52 38 51 67 -3 29 -52 53 -68 113 -76 49 -7 44 -10 147 79 8 7 -41
86 -61 99 -35 22 -146 28 -181 9z"/>
<path d="M1410 603 c1 -12 49 -99 50 -90 0 11 -39 97 -45 97 -3 0 -5 -3 -5 -7z"/>
<path d="M745 590 c4 -6 11 -8 16 -5 14 9 11 15 -7 15 -8 0 -12 -5 -9 -10z"/>
<path d="M700 587 c0 -10 44 -77 51 -77 4 0 9 7 13 15 3 8 1 15 -5 15 -5 0
-21 12 -34 28 -13 15 -25 24 -25 19z"/>
<path d="M811 564 c0 -11 3 -14 6 -6 3 7 2 16 -1 19 -3 4 -6 -2 -5 -13z"/>
<path d="M1395 550 c-3 -5 -1 -10 4 -10 6 0 11 5 11 10 0 6 -2 10 -4 10 -3 0
-8 -4 -11 -10z"/>
<path d="M626 525 c9 -14 24 -30 33 -35 13 -8 10 -10 -14 -9 -16 1 -38 -2 -48
-6 -11 -4 -23 -3 -30 4 -16 16 -32 14 -18 -2 6 -8 8 -16 5 -19 -3 -3 16 -3 42
0 44 5 46 4 39 -17 -4 -12 -2 -21 4 -21 6 0 11 11 11 25 0 27 14 31 88 26 17
-2 32 2 32 7 0 5 -21 8 -46 8 -41 -1 -50 3 -72 32 -29 38 -50 44 -26 7z"/>
<path d="M673 542 c10 -4 18 -11 18 -15 -3 -22 0 -27 10 -21 8 5 8 9 -1 14 -6
4 -11 11 -10 16 0 5 -7 10 -17 11 -17 3 -17 2 0 -5z"/>
<path d="M576 521 c-4 -5 -2 -12 3 -15 5 -4 12 -2 15 3 4 5 2 12 -3 15 -5 4
-12 2 -15 -3z"/>
<path d="M1516 522 c-3 -5 1 -9 9 -9 8 0 12 4 9 9 -3 4 -7 8 -9 8 -2 0 -6 -4
-9 -8z"/>
<path d="M836 503 c-6 -14 -5 -15 5 -6 7 7 10 15 7 18 -3 3 -9 -2 -12 -12z"/>
<path d="M1335 489 c5 -27 11 -33 20 -20 3 6 1 11 -5 11 -6 0 -9 4 -5 9 3 5 1
12 -4 16 -6 3 -8 -4 -6 -16z"/>
<path d="M1460 490 c0 -14 15 -19 29 -11 9 6 7 10 -8 14 -12 3 -21 1 -21 -3z"/>
<path d="M1430 472 c0 -15 18 -34 29 -31 7 3 3 11 -9 21 -11 10 -20 14 -20 10z"/>
<path d="M1665 470 c-3 -5 -1 -10 4 -10 6 0 11 5 11 10 0 6 -2 10 -4 10 -3 0
-8 -4 -11 -10z"/>
<path d="M721 444 c0 -11 3 -14 6 -6 3 7 2 16 -1 19 -3 4 -6 -2 -5 -13z"/>
<path d="M1355 451 c-3 -5 -1 -12 5 -16 5 -3 10 1 10 9 0 18 -6 21 -15 7z"/>
<path d="M406 442 c-3 -5 1 -9 9 -9 8 0 12 4 9 9 -3 4 -7 8 -9 8 -2 0 -6 -4
-9 -8z"/>
<path d="M760 439 c0 -5 5 -7 10 -4 6 3 10 8 10 11 0 2 -4 4 -10 4 -5 0 -10
-5 -10 -11z"/>
<path d="M366 405 c4 -8 10 -12 15 -9 11 6 2 24 -11 24 -5 0 -7 -7 -4 -15z"/>
<path d="M701 407 c-6 -6 -37 -11 -69 -10 -57 1 -57 1 -17 -8 28 -7 51 -7 77
2 20 6 53 9 75 5 24 -4 32 -3 23 2 -27 16 -77 21 -89 9z"/>
<path d="M851 394 c0 -11 3 -14 6 -6 3 7 2 16 -1 19 -3 4 -6 -2 -5 -13z"/>
<path d="M930 399 c0 -5 5 -7 10 -4 6 3 10 8 10 11 0 2 -4 4 -10 4 -5 0 -10
-5 -10 -11z"/>
<path d="M1525 400 c-3 -5 1 -10 10 -10 9 0 13 5 10 10 -3 6 -8 10 -10 10 -2
0 -7 -4 -10 -10z"/>
<path d="M1710 400 c0 -5 7 -10 16 -10 8 0 12 5 9 10 -3 6 -10 10 -16 10 -5 0
-9 -4 -9 -10z"/>
<path d="M535 390 c-3 -5 1 -10 9 -10 9 0 16 5 16 10 0 6 -4 10 -9 10 -6 0
-13 -4 -16 -10z"/>
<path d="M1578 393 c7 -3 16 -2 19 1 4 3 -2 6 -13 5 -11 0 -14 -3 -6 -6z"/>
<path d="M500 380 c-13 -8 -12 -10 3 -10 9 0 17 5 17 10 0 12 -1 12 -20 0z"/>
<path d="M408 373 c6 -2 18 -2 25 0 6 3 1 5 -13 5 -14 0 -19 -2 -12 -5z"/>
<path d="M717 373 c-10 -9 -9 -23 1 -23 5 0 9 7 9 15 0 17 -1 18 -10 8z"/>
<path d="M358 363 c7 -3 16 -2 19 1 4 3 -2 6 -13 5 -11 0 -14 -3 -6 -6z"/>
<path d="M800 360 c0 -5 5 -10 11 -10 5 0 7 5 4 10 -3 6 -8 10 -11 10 -2 0 -4
-4 -4 -10z"/>
<path d="M1670 359 c0 -5 5 -7 10 -4 6 3 10 8 10 11 0 2 -4 4 -10 4 -5 0 -10
-5 -10 -11z"/>
<path d="M630 349 c0 -5 5 -7 10 -4 6 3 10 8 10 11 0 2 -4 4 -10 4 -5 0 -10
-5 -10 -11z"/>
<path d="M794 329 c-9 -15 18 -21 32 -7 12 12 11 14 -7 14 -11 0 -22 -4 -25
-7z"/>
<path d="M1535 330 c-3 -5 -1 -10 4 -10 6 0 11 5 11 10 0 6 -2 10 -4 10 -3 0
-8 -4 -11 -10z"/>
<path d="M704 319 c-3 -5 9 -9 25 -9 17 0 31 4 31 9 0 5 -11 9 -25 9 -14 0
-28 -4 -31 -9z"/>
<path d="M1345 320 c-4 -6 -3 -16 3 -22 13 -13 23 4 13 21 -7 10 -10 10 -16 1z"/>
<path d="M1576 321 c-3 -5 10 -11 29 -13 24 -3 35 0 35 9 0 15 -56 18 -64 4z"/>
<path d="M1815 320 c3 -5 10 -10 16 -10 5 0 9 5 9 10 0 6 -7 10 -16 10 -8 0
-12 -4 -9 -10z"/>
<path d="M196 304 c-5 -14 -4 -15 9 -4 17 14 19 20 6 20 -5 0 -12 -7 -15 -16z"/>
<path d="M645 310 c-30 -8 -30 -8 8 -9 20 0 37 4 37 9 0 11 -2 11 -45 0z"/>
<path d="M1438 313 c7 -3 16 -2 19 1 4 3 -2 6 -13 5 -11 0 -14 -3 -6 -6z"/>
<path d="M1720 309 c0 -5 5 -7 10 -4 6 3 10 8 10 11 0 2 -4 4 -10 4 -5 0 -10
-5 -10 -11z"/>
<path d="M1918 313 c7 -3 16 -2 19 1 4 3 -2 6 -13 5 -11 0 -14 -3 -6 -6z"/>
<path d="M445 300 c-3 -5 1 -10 10 -10 9 0 13 5 10 10 -3 6 -8 10 -10 10 -2 0
-7 -4 -10 -10z"/>
<path d="M540 300 c0 -5 4 -10 9 -10 6 0 13 5 16 10 3 6 -1 10 -9 10 -9 0 -16
-4 -16 -10z"/>
<path d="M800 280 c0 -5 5 -10 10 -10 6 0 10 5 10 10 0 6 -4 10 -10 10 -5 0
-10 -4 -10 -10z"/>
<path d="M1530 280 c0 -5 5 -10 10 -10 6 0 10 5 10 10 0 6 -4 10 -10 10 -5 0
-10 -4 -10 -10z"/>
<path d="M230 270 c-9 -6 -10 -10 -3 -10 6 0 15 5 18 10 8 12 4 12 -15 0z"/>
<path d="M710 271 c0 -6 5 -13 10 -16 6 -3 10 1 10 9 0 9 -4 16 -10 16 -5 0
-10 -4 -10 -9z"/>
<path d="M1620 270 c0 -5 5 -10 10 -10 6 0 10 5 10 10 0 6 -4 10 -10 10 -5 0
-10 -4 -10 -10z"/>
<path d="M1720 270 c0 -5 5 -10 11 -10 5 0 7 5 4 10 -3 6 -8 10 -11 10 -2 0
-4 -4 -4 -10z"/>
<path d="M1915 270 c4 -6 11 -8 16 -5 14 9 11 15 -7 15 -8 0 -12 -5 -9 -10z"/>
<path d="M1188 253 c7 -3 16 -2 19 1 4 3 -2 6 -13 5 -11 0 -14 -3 -6 -6z"/>
<path d="M808 244 c-3 -2 -31 -6 -62 -8 -60 -5 -87 -15 -45 -17 13 -1 27 -1
31 0 4 0 28 2 53 5 50 4 64 10 41 19 -8 3 -16 4 -18 1z"/>
<path d="M1430 235 c0 -8 5 -15 10 -15 6 0 10 7 10 15 0 8 -4 15 -10 15 -5 0
-10 -7 -10 -15z"/>
<path d="M131 228 c-2 -25 15 -30 30 -10 13 15 12 16 -3 4 -14 -11 -17 -10
-21 5 -4 16 -5 16 -6 1z"/>
<path d="M1380 230 c0 -5 5 -10 10 -10 6 0 10 5 10 10 0 6 -4 10 -10 10 -5 0
-10 -4 -10 -10z"/>
<path d="M1460 236 c0 -2 9 -6 20 -9 11 -3 20 -1 20 4 0 5 -9 9 -20 9 -11 0
-20 -2 -20 -4z"/>
<path d="M1520 230 c20 -13 43 -13 35 0 -3 6 -16 10 -28 10 -18 0 -19 -2 -7
-10z"/>
<path d="M1670 230 c0 -5 5 -10 11 -10 5 0 7 5 4 10 -3 6 -8 10 -11 10 -2 0
-4 -4 -4 -10z"/>
<path d="M1720 230 c0 -5 5 -10 10 -10 6 0 10 5 10 10 0 6 -4 10 -10 10 -5 0
-10 -4 -10 -10z"/>
<path d="M1770 230 c0 -5 5 -10 10 -10 6 0 10 5 10 10 0 6 -4 10 -10 10 -5 0
-10 -4 -10 -10z"/>
<path d="M1820 230 c0 -5 5 -10 10 -10 6 0 10 5 10 10 0 6 -4 10 -10 10 -5 0
-10 -4 -10 -10z"/>
<path d="M555 219 c-16 -5 -38 -6 -47 -3 -10 3 -18 0 -18 -7 0 -12 84 -8 97 5
12 11 -2 13 -32 5z"/>
<path d="M620 220 c0 -5 5 -10 10 -10 6 0 10 5 10 10 0 6 -4 10 -10 10 -5 0
-10 -4 -10 -10z"/>
<path d="M1620 220 c0 -5 5 -10 10 -10 6 0 10 5 10 10 0 6 -4 10 -10 10 -5 0
-10 -4 -10 -10z"/>
<path d="M1870 222 c0 -5 23 -10 50 -11 28 -1 50 2 50 7 0 5 -22 9 -50 11 -27
1 -50 -2 -50 -7z"/>
<path d="M256 211 c-4 -7 -5 -15 -2 -18 9 -9 19 4 14 18 -4 11 -6 11 -12 0z"/>
<path d="M340 210 c0 -5 7 -10 15 -10 8 0 15 5 15 10 0 6 -7 10 -15 10 -8 0
-15 -4 -15 -10z"/>
<path d="M445 210 c3 -5 8 -10 11 -10 2 0 4 5 4 10 0 6 -5 10 -11 10 -5 0 -7
-4 -4 -10z"/>
<path d="M107 180 c3 -11 7 -20 9 -20 2 0 4 9 4 20 0 11 -4 20 -9 20 -5 0 -7
-9 -4 -20z"/>
<path d="M211 179 c-31 -25 -23 -33 9 -9 14 10 23 21 20 23 -3 3 -16 -3 -29
-14z"/>
<path d="M808 193 c7 -3 16 -2 19 1 4 3 -2 6 -13 5 -11 0 -14 -3 -6 -6z"/>
<path d="M1330 186 c0 -9 5 -16 10 -16 6 0 10 4 10 9 0 6 -4 13 -10 16 -5 3
-10 -1 -10 -9z"/>
<path d="M710 180 c0 -5 5 -10 10 -10 6 0 10 5 10 10 0 6 -4 10 -10 10 -5 0
-10 -4 -10 -10z"/>
<path d="M1525 180 c-3 -5 -2 -10 4 -10 5 0 13 5 16 10 3 6 2 10 -4 10 -5 0
-13 -4 -16 -10z"/>
<path d="M1670 179 c0 -5 5 -7 10 -4 6 3 10 8 10 11 0 2 -4 4 -10 4 -5 0 -10
-5 -10 -11z"/>
<path d="M1820 180 c0 -5 5 -10 10 -10 6 0 10 5 10 10 0 6 -4 10 -10 10 -5 0
-10 -4 -10 -10z"/>
<path d="M445 170 c3 -5 8 -10 11 -10 2 0 4 5 4 10 0 6 -5 10 -11 10 -5 0 -7
-4 -4 -10z"/>
<path d="M1148 173 c7 -3 16 -2 19 1 4 3 -2 6 -13 5 -11 0 -14 -3 -6 -6z"/>
<path d="M1910 170 c0 -5 4 -10 9 -10 6 0 13 5 16 10 3 6 -1 10 -9 10 -9 0
-16 -4 -16 -10z"/>
<path d="M75 161 c-3 -5 -2 -12 3 -15 5 -3 9 1 9 9 0 17 -3 19 -12 6z"/>
<path d="M115 140 c3 -5 8 -10 11 -10 2 0 4 5 4 10 0 6 -5 10 -11 10 -5 0 -7
-4 -4 -10z"/>
<path d="M150 139 c0 -5 5 -7 10 -4 6 3 10 8 10 11 0 2 -4 4 -10 4 -5 0 -10
-5 -10 -11z"/>
<path d="M226 142 c-3 -4 4 -9 15 -9 23 -2 25 3 4 10 -8 4 -16 3 -19 -1z"/>
<path d="M761 142 c-28 -9 2 -19 39 -12 23 4 59 6 80 5 22 -2 43 1 46 7 6 9
-137 9 -165 0z"/>
<path d="M1430 140 c0 -5 5 -10 10 -10 6 0 10 5 10 10 0 6 -4 10 -10 10 -5 0
-10 -4 -10 -10z"/>
<path d="M1480 140 c0 -5 5 -10 10 -10 6 0 10 5 10 10 0 6 -4 10 -10 10 -5 0
-10 -4 -10 -10z"/>
<path d="M575 130 c-3 -5 -1 -10 4 -10 6 0 11 5 11 10 0 6 -2 10 -4 10 -3 0
-8 -4 -11 -10z"/>
<path d="M615 130 c3 -5 8 -10 11 -10 2 0 4 5 4 10 0 6 -5 10 -11 10 -5 0 -7
-4 -4 -10z"/>
<path d="M710 130 c0 -5 5 -10 10 -10 6 0 10 5 10 10 0 6 -4 10 -10 10 -5 0
-10 -4 -10 -10z"/>
<path d="M1330 130 c0 -5 5 -10 10 -10 6 0 10 5 10 10 0 6 -4 10 -10 10 -5 0
-10 -4 -10 -10z"/>
<path d="M1530 129 c0 -5 5 -7 10 -4 6 3 10 8 10 11 0 2 -4 4 -10 4 -5 0 -10
-5 -10 -11z"/>
<path d="M1620 130 c0 -5 7 -10 15 -10 8 0 15 5 15 10 0 6 -7 10 -15 10 -8 0
-15 -4 -15 -10z"/>
<path d="M1725 130 c3 -5 8 -10 11 -10 2 0 4 5 4 10 0 6 -5 10 -11 10 -5 0 -7
-4 -4 -10z"/>
<path d="M1820 130 c0 -5 7 -10 15 -10 8 0 15 5 15 10 0 6 -7 10 -15 10 -8 0
-15 -4 -15 -10z"/>
<path d="M50 117 c0 -8 7 -17 15 -21 8 -3 15 -2 15 3 0 5 -7 14 -15 21 -12 10
-15 10 -15 -3z"/>
<path d="M203 115 c0 -8 4 -12 9 -9 5 3 6 10 3 15 -9 13 -12 11 -12 -6z"/>
<path d="M262 109 c-7 -11 -11 -24 -8 -27 10 -9 28 15 24 32 -2 14 -5 13 -16
-5z"/>
<path d="M345 120 c4 -6 11 -8 16 -5 14 9 11 15 -7 15 -8 0 -12 -5 -9 -10z"/>
<path d="M390 120 c0 -5 5 -10 10 -10 6 0 10 5 10 10 0 6 -4 10 -10 10 -5 0
-10 -4 -10 -10z"/>
<path d="M440 120 c0 -5 5 -10 10 -10 6 0 10 5 10 10 0 6 -4 10 -10 10 -5 0
-10 -4 -10 -10z"/>
<path d="M1069 125 c-4 -20 -2 -53 5 -63 5 -8 0 -12 -14 -12 -12 0 -18 -4 -15
-10 3 -5 15 -10 26 -10 10 0 19 -4 19 -8 0 -4 21 -7 48 -6 26 1 62 3 80 3 17
1 32 6 32 12 0 7 -16 8 -45 3 -29 -4 -50 -2 -59 5 -10 8 -16 9 -21 1 -14 -22
-34 -10 -32 19 1 16 6 26 12 23 6 -3 4 1 -2 10 -7 8 -10 17 -7 20 2 3 -2 8
-11 11 -8 4 -15 4 -16 2z"/>
<path d="M1875 120 c3 -5 8 -10 11 -10 2 0 4 5 4 10 0 6 -5 10 -11 10 -5 0 -7
-4 -4 -10z"/>
<path d="M1900 120 c0 -5 9 -10 20 -10 11 0 20 5 20 10 0 6 -9 10 -20 10 -11
0 -20 -4 -20 -10z"/>
<path d="M1981 114 c0 -11 3 -14 6 -6 3 7 2 16 -1 19 -3 4 -6 -2 -5 -13z"/>
<path d="M470 116 c0 -2 9 -6 20 -9 11 -3 20 -1 20 4 0 5 -9 9 -20 9 -11 0
-20 -2 -20 -4z"/>
<path d="M130 100 c0 -5 5 -10 10 -10 6 0 10 -6 10 -12 0 -7 13 -28 29 -47 21
-25 30 -31 36 -21 5 9 4 11 -4 6 -7 -5 -13 3 -17 23 -4 17 -10 28 -15 25 -5
-3 -9 1 -9 8 0 7 -9 19 -20 26 -12 7 -20 8 -20 2z"/>
<path d="M908 103 c7 -3 16 -2 19 1 4 3 -2 6 -13 5 -11 0 -14 -3 -6 -6z"/>
<path d="M958 103 c7 -3 16 -2 19 1 4 3 -2 6 -13 5 -11 0 -14 -3 -6 -6z"/>
<path d="M105 90 c-3 -5 -1 -10 4 -10 6 0 11 5 11 10 0 6 -2 10 -4 10 -3 0 -8
-4 -11 -10z"/>
<path d="M810 90 c0 -5 5 -10 10 -10 6 0 10 5 10 10 0 6 -4 10 -10 10 -5 0
-10 -4 -10 -10z"/>
<path d="M1430 90 c0 -5 5 -10 11 -10 5 0 7 5 4 10 -3 6 -8 10 -11 10 -2 0 -4
-4 -4 -10z"/>
<path d="M1480 90 c0 -5 5 -10 10 -10 6 0 10 5 10 10 0 6 -4 10 -10 10 -5 0
-10 -4 -10 -10z"/>
<path d="M214 75 c-17 -13 -17 -14 -2 -15 9 0 20 5 23 11 11 17 0 20 -21 4z"/>
<path d="M908 83 c7 -3 16 -2 19 1 4 3 -2 6 -13 5 -11 0 -14 -3 -6 -6z"/>
<path d="M1164 81 c3 -4 -5 -6 -18 -4 -13 3 -27 -1 -31 -8 -6 -9 -3 -11 8 -6
10 3 17 3 17 -2 0 -4 14 -6 30 -3 17 2 30 9 30 14 0 5 -4 6 -10 3 -5 -3 -10
-1 -10 4 0 6 -5 11 -11 11 -5 0 -8 -4 -5 -9z"/>
<path d="M1230 79 c0 -5 5 -7 10 -4 6 3 10 8 10 11 0 2 -4 4 -10 4 -5 0 -10
-5 -10 -11z"/>
<path d="M1630 80 c0 -5 5 -10 11 -10 5 0 7 5 4 10 -3 6 -8 10 -11 10 -2 0 -4
-4 -4 -10z"/>
<path d="M1820 81 c0 -6 4 -12 8 -15 5 -3 9 1 9 9 0 8 -4 15 -9 15 -4 0 -8 -4
-8 -9z"/>
<path d="M37 73 c-3 -5 3 -19 14 -32 10 -13 19 -18 19 -13 0 6 -5 14 -10 17
-6 4 -8 10 -5 15 3 5 1 11 -4 14 -5 4 -12 3 -14 -1z"/>
<path d="M80 59 c0 -14 8 -34 19 -43 17 -15 19 -15 25 -1 3 9 10 13 16 10 6
-4 8 -10 6 -14 -3 -4 2 -8 10 -8 11 0 9 6 -8 24 -22 23 -34 30 -23 14 3 -5 1
-12 -5 -16 -6 -4 -17 9 -25 27 -14 31 -14 32 -15 7z"/>
<path d="M445 70 c-3 -5 -1 -10 4 -10 6 0 11 5 11 10 0 6 -2 10 -4 10 -3 0 -8
-4 -11 -10z"/>
<path d="M266 45 c-3 -8 -1 -15 4 -15 6 0 10 7 10 15 0 8 -2 15 -4 15 -2 0 -6
-7 -10 -15z"/>
<path d="M869 55 c-3 -2 -29 -5 -57 -6 -29 -1 -52 -6 -52 -10 0 -5 27 -8 60
-7 42 1 60 5 60 15 0 14 -3 16 -11 8z"/>
<path d="M902 49 c2 -6 7 -10 11 -10 4 1 23 1 44 1 48 0 34 13 -18 16 -24 2
-39 -1 -37 -7z"/>
<path d="M1000 51 c0 -6 5 -13 10 -16 6 -3 10 1 10 9 0 9 -4 16 -10 16 -5 0
-10 -4 -10 -9z"/>
<path d="M615 40 c-3 -5 -1 -10 4 -10 6 0 11 5 11 10 0 6 -2 10 -4 10 -3 0 -8
-4 -11 -10z"/>
<path d="M660 40 c0 -6 7 -10 15 -10 8 0 15 2 15 4 0 2 -7 6 -15 10 -8 3 -15
1 -15 -4z"/>
<path d="M710 40 c0 -5 7 -10 16 -10 8 0 12 5 9 10 -3 6 -10 10 -16 10 -5 0
-9 -4 -9 -10z"/>
<path d="M1280 40 c-13 -8 -12 -10 3 -10 9 0 17 5 17 10 0 12 -1 12 -20 0z"/>
<path d="M1320 40 c-10 -7 7 -10 58 -10 41 0 72 4 72 10 0 13 -110 13 -130 0z"/>
<path d="M1480 40 c0 -5 5 -10 10 -10 6 0 10 5 10 10 0 6 -4 10 -10 10 -5 0
-10 -4 -10 -10z"/>
<path d="M1730 36 c0 -9 5 -16 10 -16 6 0 10 4 10 9 0 6 -4 13 -10 16 -5 3
-10 -1 -10 -9z"/>
<path d="M225 30 c3 -5 11 -10 16 -10 6 0 7 5 4 10 -3 6 -11 10 -16 10 -6 0
-7 -4 -4 -10z"/>
<path d="M290 30 c0 -5 5 -10 10 -10 6 0 10 5 10 10 0 6 -4 10 -10 10 -5 0
-10 -4 -10 -10z"/>
<path d="M340 26 c0 -9 5 -16 10 -16 6 0 10 4 10 9 0 6 -4 13 -10 16 -5 3 -10
-1 -10 -9z"/>
<path d="M565 30 c-3 -5 1 -10 9 -10 9 0 16 5 16 10 0 6 -4 10 -9 10 -6 0 -13
-4 -16 -10z"/>
<path d="M1525 30 c3 -5 10 -10 16 -10 5 0 9 5 9 10 0 6 -7 10 -16 10 -8 0
-12 -4 -9 -10z"/>
<path d="M1625 30 c3 -5 10 -10 16 -10 5 0 9 5 9 10 0 6 -7 10 -16 10 -8 0
-12 -4 -9 -10z"/>
<path d="M1770 30 c0 -5 9 -10 20 -10 11 0 20 5 20 10 0 6 -9 10 -20 10 -11 0
-20 -4 -20 -10z"/>
<path d="M1820 31 c0 -6 5 -13 10 -16 6 -3 10 1 10 9 0 9 -4 16 -10 16 -5 0
-10 -4 -10 -9z"/>
<path d="M22 18 c5 -15 28 -23 28 -10 0 5 -7 13 -16 16 -10 4 -14 1 -12 -6z"/>
<path d="M435 20 c7 -12 55 -14 55 -2 0 4 -14 9 -31 10 -19 2 -28 -2 -24 -8z"/>
<path d="M525 20 c4 -6 11 -8 16 -5 14 9 11 15 -7 15 -8 0 -12 -5 -9 -10z"/>
<path d="M1855 22 c16 -15 87 -23 82 -9 -2 7 -24 13 -48 15 -27 2 -40 0 -34
-6z"/>
</g>
</svg>
