<?xml version="1.0" standalone="no"?>
<!DOCTYPE svg PUBLIC "-//W3C//DTD SVG 20010904//EN"
 "http://www.w3.org/TR/2001/REC-SVG-20010904/DTD/svg10.dtd">
<svg version="1.0" xmlns="http://www.w3.org/2000/svg"
 width="200.000000pt" height="200.000000pt" viewBox="0 0 200.000000 200.000000"
 preserveAspectRatio="xMidYMid meet">

<g transform="translate(0.000000,200.000000) scale(0.100000,-0.100000)"
fill="#000000" stroke="none">
<path d="M925 1831 c-71 -21 -175 -70 -302 -143 -73 -42 -103 -67 -144 -118
-28 -36 -60 -83 -70 -105 -21 -48 -34 -199 -25 -287 7 -60 10 -65 52 -97 24
-18 44 -38 44 -43 0 -5 9 -21 20 -35 11 -14 21 -37 21 -52 1 -14 7 21 13 79
l11 104 44 13 c30 9 49 9 62 2 13 -6 19 -6 19 1 0 5 -7 10 -15 10 -8 0 -15 7
-15 16 0 13 -6 15 -27 8 -45 -12 -88 -11 -85 4 1 6 -2 12 -8 12 -6 0 -6 9 0
24 5 13 7 26 4 29 -3 2 -5 25 -6 50 -1 55 48 168 84 190 31 21 78 32 78 19 0
-6 -6 -13 -12 -15 -7 -3 0 -6 15 -6 18 -1 26 -5 22 -12 -19 -30 216 16 241 47
6 8 26 17 45 20 19 3 43 9 54 14 11 5 38 13 60 18 22 5 47 12 55 16 24 9 107
-59 140 -116 57 -100 65 -132 51 -202 -7 -33 -14 -62 -15 -64 -2 -1 -38 -9
-81 -17 -94 -18 -141 -45 -155 -88 l-10 -32 3 33 c2 17 0 32 -4 32 -4 0 -14 3
-22 6 -9 3 -16 -2 -20 -15 -3 -13 1 -21 12 -24 11 -2 23 -26 34 -66 21 -76 52
-108 114 -117 47 -7 126 -1 157 11 18 8 19 4 13 -56 -4 -35 -9 -77 -12 -94 -3
-16 3 -5 15 25 11 30 23 91 26 135 6 94 22 166 41 180 10 8 11 21 4 60 -7 37
-5 70 6 126 15 73 14 78 -6 124 -11 26 -21 53 -21 60 0 23 -56 124 -81 144
-13 11 -49 28 -80 37 -50 14 -58 20 -63 46 -9 45 -7 60 5 52 7 -4 10 -1 7 7
-3 8 -12 14 -22 14 -9 0 -20 5 -24 11 -13 19 -92 44 -140 43 -26 0 -74 -8
-107 -18z m406 -198 c16 -10 29 -21 29 -25 0 -4 -16 2 -35 13 -33 20 -42 29
-29 29 3 0 19 -8 35 -17z m-261 -43 c0 -5 -4 -10 -10 -10 -5 0 -10 5 -10 10 0
6 5 10 10 10 6 0 10 -4 10 -10z m-246 -65 c-4 -8 -11 -12 -16 -9 -6 4 -5 10 3
15 19 12 19 11 13 -6z m471 -389 c29 -13 36 -22 51 -75 9 -34 20 -61 24 -61 5
0 11 22 15 48 3 26 11 54 16 62 18 25 1 -79 -19 -119 -24 -49 -54 -62 -135
-59 -57 3 -71 8 -94 30 -22 22 -27 38 -30 84 -3 64 11 83 59 84 15 0 30 5 33
10 9 14 40 12 80 -4z"/>
<path d="M1169 1088 c5 -15 18 -23 39 -25 25 -3 31 -1 26 11 -3 9 -1 16 5 16
6 0 11 -7 11 -15 0 -8 3 -15 8 -15 4 0 17 -3 29 -6 21 -6 21 -4 10 25 -11 30
-13 31 -74 31 -60 0 -62 -1 -54 -22z"/>
<path d="M815 1210 c-83 -6 -86 -6 -30 -9 l60 -3 -60 -13 c-33 -7 -58 -14 -55
-15 3 -1 59 -3 124 -5 103 -2 121 -4 132 -20 16 -22 19 -69 4 -60 -14 8 -43
-61 -35 -84 6 -21 -12 -39 -52 -51 -26 -8 -26 -8 -4 -9 32 -1 82 53 104 115
23 66 22 72 -23 123 -35 40 -40 43 -56 30 -11 -9 -15 -9 -10 -1 4 6 4 11 -1
10 -4 -1 -48 -5 -98 -8z m160 -187 c-9 -15 -13 -19 -10 -8 4 11 10 29 13 40 3
11 7 14 9 8 3 -7 -3 -24 -12 -40z"/>
<path d="M791 1109 c-19 -6 -44 -17 -55 -25 -19 -13 -14 -14 47 -14 55 0 67 3
67 16 0 13 6 15 28 9 19 -4 24 -3 17 4 -16 16 -66 21 -104 10z"/>
<path d="M709 983 c11 -22 47 -40 58 -29 4 3 -1 6 -10 6 -9 0 -26 10 -38 23
-21 22 -21 22 -10 0z"/>
<path d="M793 943 c9 -2 23 -2 30 0 6 3 -1 5 -18 5 -16 0 -22 -2 -12 -5z"/>
<path d="M1085 854 c-19 -16 -19 -16 5 -9 31 9 50 25 30 25 -8 0 -24 -8 -35
-16z"/>
<path d="M480 783 c0 -5 5 -15 10 -23 8 -12 10 -11 10 8 0 12 -4 22 -10 22 -5
0 -10 -3 -10 -7z"/>
<path d="M1338 695 c-12 -43 -36 -85 -83 -147 -36 -49 -69 -88 -74 -88 -5 0
-11 -9 -14 -19 -2 -11 -22 -28 -43 -39 -37 -19 -38 -19 -15 -32 13 -6 21 -8
17 -2 -10 17 53 23 78 7 12 -8 26 -12 31 -8 4 5 5 2 1 -5 -4 -7 13 -39 43 -80
37 -49 57 -68 76 -70 16 -1 25 3 25 13 0 16 -40 86 -40 70 -1 -20 -30 30 -30
51 0 15 -8 24 -27 30 -16 4 -30 8 -33 9 -3 1 -17 5 -32 9 -16 5 -28 13 -28 18
0 6 23 35 50 65 28 31 59 72 70 92 24 48 52 146 48 169 -2 9 -11 -10 -20 -43z
m16 -453 c3 -5 -1 -9 -9 -9 -8 0 -12 4 -9 9 3 4 7 8 9 8 2 0 6 -4 9 -8z"/>
<path d="M1130 711 c0 -5 6 -11 13 -13 17 -7 38 2 31 13 -7 12 -44 12 -44 0z"/>
<path d="M480 529 c-6 -11 -9 -30 -7 -42 4 -21 4 -21 6 1 0 15 9 26 21 29 11
3 20 12 20 19 0 21 -28 17 -40 -7z"/>
<path d="M334 340 c-34 -13 -37 -29 -8 -36 26 -7 44 6 44 34 0 14 -6 14 -36 2z"/>
<path d="M1161 170 c-1 -33 2 -41 11 -32 8 8 8 20 1 44 l-11 33 -1 -45z"/>
<path d="M1357 154 c-3 -3 2 -18 11 -33 15 -26 14 -30 -5 -57 -25 -36 -35 -64
-24 -64 5 0 11 5 13 11 3 9 9 9 25 0 12 -6 38 -11 58 -11 29 0 38 5 47 26 11
25 9 29 -37 71 -56 49 -80 65 -88 57z"/>
<path d="M1955 125 c4 -11 9 -29 11 -40 4 -19 4 -19 -5 0 -5 12 -17 27 -27 35
-16 14 -17 13 -11 -3 4 -10 0 -37 -8 -60 -20 -57 -20 -57 25 -57 25 0 40 5 40
13 0 8 4 7 10 -3 7 -11 10 -6 10 20 -1 20 -11 52 -26 75 -15 22 -23 31 -19 20z
m22 -87 c-3 -8 -6 -5 -6 6 -1 11 2 17 5 13 3 -3 4 -12 1 -19z"/>
<path d="M474 36 c-26 -20 -6 -41 31 -32 23 6 33 30 11 26 -5 -1 -12 3 -15 9
-5 8 -13 7 -27 -3z"/>
<path d="M706 17 c3 -10 9 -15 12 -12 3 3 0 11 -7 18 -10 9 -11 8 -5 -6z"/>
</g>
</svg>
